<svg width="144" height="154" viewBox="0 0 144 154" fill="none" xmlns="http://www.w3.org/2000/svg">
<g clip-path="url(#clip0)">
<path d="M26.4 69.5824L15.42 78.1936C14.693 78.7695 14.3306 79.7337 14.4827 80.6876C14.6348 81.6414 15.2756 82.4227 16.14 82.7083L100.099 110.251C100.946 110.526 101.866 110.279 102.492 109.61C103.118 108.94 103.349 107.957 103.092 107.051L77.3376 17.2558C77.0705 16.3313 76.34 15.646 75.4481 15.4833C74.5562 15.3207 73.6546 15.7082 73.116 16.4858L58.956 37.1346C58.5416 37.736 57.9027 38.1145 57.2061 38.1712C56.5095 38.2279 55.8244 37.9572 55.3296 37.4298L23.4288 3.31618C22.4922 2.31762 20.9767 2.31762 20.04 3.31618L11.5704 12.374L3.10082 21.4317C2.1671 22.4334 2.1671 24.0542 3.10082 25.0559L35.004 59.1746C35.4972 59.7037 35.7503 60.4364 35.6973 61.1813C35.6443 61.9263 35.2904 62.6096 34.728 63.0528L26.4 69.5824Z" fill="#E91E63"/>
<path d="M34.728 55.3528C35.2904 54.9096 35.6443 54.2263 35.6973 53.4814C35.7503 52.7364 35.4972 52.0037 35.004 51.4746L5.00396 19.3912L3.08396 21.4292C2.15024 22.4309 2.15024 24.0516 3.08396 25.0533L32.8248 56.844L34.728 55.3528Z" fill="#AD1457"/>
<path d="M103.092 107.051L101.765 102.431C101.243 102.691 100.65 102.736 100.099 102.556L18.4992 75.7886L15.4248 78.1987C14.6978 78.7746 14.3354 79.7389 14.4875 80.6927C14.6396 81.6465 15.2804 82.4278 16.1448 82.7134L100.099 110.251C100.946 110.526 101.866 110.279 102.492 109.61C103.118 108.94 103.349 107.957 103.092 107.051Z" fill="#AD1457"/>
<path d="M69.9696 34.9402C69.9701 33.6699 70.8393 32.591 72.0141 32.4028C73.1888 32.2146 74.3156 32.9737 74.664 34.1882L78.6312 48.0148C78.8971 48.896 78.6984 49.8621 78.1115 50.5428C77.5245 51.2235 76.6403 51.5133 75.7974 51.3013C74.9546 51.0892 74.284 50.4081 74.0424 49.5189L70.08 35.6948C70.0082 35.4506 69.971 35.1962 69.9696 34.9402V34.9402Z" fill="#F5F5F5"/>
<path d="M77.6136 61.6C77.6101 60.3264 78.4804 59.2427 79.6582 59.0541C80.836 58.8656 81.9649 59.6292 82.3104 60.848L83.5848 65.296C83.9507 66.6432 83.2375 68.055 81.9833 68.4661C80.7292 68.8772 79.3987 68.1352 78.996 66.8001L77.7216 62.3521C77.6509 62.1085 77.6145 61.8551 77.6136 61.6Z" fill="#F5F5F5"/>
<path d="M112.8 151.433V141.167C112.8 139.749 111.725 138.6 110.4 138.6C109.075 138.6 108 139.749 108 141.167V151.433C108 152.851 109.075 154 110.4 154C111.725 154 112.8 152.851 112.8 151.433Z" fill="black"/>
<path d="M112.8 84.7C112.8 83.2824 111.725 82.1333 110.4 82.1333C109.075 82.1333 108 83.2824 108 84.7V94.9666C108 96.3842 109.075 97.5333 110.4 97.5333C111.725 97.5333 112.8 96.3842 112.8 94.9666V84.7Z" fill="black"/>
<path d="M96.8304 136.213C97.437 135.565 97.6742 134.62 97.4525 133.734C97.2308 132.848 96.584 132.155 95.7557 131.918C94.9274 131.68 94.0434 131.933 93.4368 132.581L86.64 139.842C86.0329 140.492 85.7961 141.439 86.0186 142.326C86.2412 143.213 86.8894 143.906 87.719 144.143C88.5487 144.38 89.4337 144.126 90.0408 143.477L96.8304 136.213Z" fill="black"/>
<path d="M123.278 101.73C123.279 102.768 123.863 103.703 124.76 104.101C125.657 104.498 126.689 104.278 127.375 103.545L134.16 96.2834C135.02 95.2697 134.984 93.7131 134.08 92.7451C133.175 91.7771 131.72 91.7382 130.771 92.6567L123.982 99.9178C123.532 100.398 123.279 101.05 123.278 101.73V101.73Z" fill="black"/>
<path d="M91.2 118.067C91.2 116.649 90.1255 115.5 88.8 115.5H79.2C77.8745 115.5 76.8 116.649 76.8 118.067C76.8 119.484 77.8745 120.633 79.2 120.633H88.8C90.1255 120.633 91.2 119.484 91.2 118.067Z" fill="black"/>
<path d="M141.6 115.5H132C130.675 115.5 129.6 116.649 129.6 118.067C129.6 119.484 130.675 120.633 132 120.633H141.6C142.925 120.633 144 119.484 144 118.067C144 116.649 142.925 115.5 141.6 115.5Z" fill="black"/>
<path d="M134.16 143.477C135.097 142.474 135.097 140.85 134.16 139.847L127.375 132.581C126.769 131.933 125.885 131.68 125.056 131.918C124.228 132.155 123.581 132.848 123.359 133.734C123.138 134.62 123.375 135.565 123.982 136.213L130.771 143.477C131.708 144.475 133.223 144.475 134.16 143.477V143.477Z" fill="black"/>
<path d="M1.41115 19.6145C-0.457886 21.6182 -0.457886 24.8616 1.41115 26.8653L33.3144 60.9789C32.2454 61.8173 32.0143 63.4238 32.7984 64.5671C33.5824 65.7103 35.0846 65.9574 36.1536 65.1189C37.2811 64.2329 37.9911 62.8649 38.0976 61.3729C38.2041 59.881 37.6966 58.4135 36.708 57.3547L4.79995 23.2437L21.7368 5.13334L53.64 39.2469C54.6299 40.3033 56.0015 40.8455 57.396 40.7316C58.7904 40.6176 60.0691 39.859 60.8976 38.654L75.0576 18.0052L100.8 107.8L16.8456 80.2622L27.8256 71.6511C28.8966 70.8126 29.1292 69.2044 28.3452 68.059C27.5611 66.9137 26.0573 66.6649 24.9864 67.5033L14.0064 76.1145C12.5467 77.2651 11.8179 79.1971 12.1224 81.1088C12.4269 83.0205 13.7128 84.5855 15.4464 85.1543L99.4104 112.695C101.11 113.254 102.96 112.763 104.217 111.418C105.475 110.074 105.934 108.096 105.41 106.278L79.6392 16.4985C79.1067 14.6458 77.6439 13.2718 75.8573 12.9462C74.0707 12.6206 72.2649 13.399 71.1888 14.9585L57.0288 35.6074L25.1328 1.50151C23.2589 -0.499037 20.2242 -0.499037 18.3504 1.50151L1.41115 19.6145Z" fill="black"/>
<path d="M110.4 110.048C110.246 110.709 110.344 111.408 110.672 111.991C111 112.575 111.532 112.995 112.15 113.159C115.566 114.078 117.859 117.505 117.57 121.259C117.281 125.013 114.494 127.993 110.984 128.301C107.473 128.609 104.269 126.156 103.411 122.502C103.117 121.246 101.994 120.421 100.793 120.578C99.5914 120.735 98.687 121.823 98.6832 123.118C98.6823 123.328 98.7065 123.538 98.7552 123.742C100.181 129.836 105.522 133.93 111.376 133.417C117.23 132.905 121.877 127.935 122.356 121.675C122.836 115.414 119.007 109.702 113.309 108.177C112.691 108.013 112.038 108.118 111.492 108.469C110.946 108.819 110.554 109.388 110.4 110.048V110.048Z" fill="black"/>
</g>
<defs>
<clipPath id="clip0">
<rect width="154" height="144" fill="white" transform="translate(144) rotate(90)"/>
</clipPath>
</defs>
</svg>
