<svg width="25" height="25" viewBox="0 0 25 25" fill="none" xmlns="http://www.w3.org/2000/svg">
<g clip-path="url(#clip0)">
<path d="M23.7828 0.171875C23.6838 0.0625 23.5432 0 23.3963 0H1.52133C1.37343 0 1.23383 0.0625 1.13485 0.171875C1.03588 0.280225 0.987977 0.426025 1.00258 0.5729L3.08593 21.4062C3.1057 21.6094 3.24428 21.7833 3.43905 21.8479L12.8141 24.9729C12.8672 24.9917 12.9234 25 12.9787 25C13.0412 25 13.1026 24.9885 13.163 24.9667L21.4964 21.8417C21.6818 21.7729 21.812 21.6031 21.8318 21.4062L23.9151 0.5729C23.9297 0.4271 23.8817 0.280225 23.7828 0.171875ZM20.8255 20.9802L12.9682 23.9271L4.08798 20.9667L2.0953 1.04165H22.8193L20.8255 20.9802Z" fill="white" stroke="#D0989B" stroke-width="0.9"/>
<path d="M19.6688 5.39475C19.5698 5.27703 19.4229 5.20935 19.2698 5.20935H6.76978C6.48228 5.20935 6.24893 5.4427 6.24893 5.7302C6.24893 6.0177 6.48228 6.25105 6.76978 6.25105H18.65L17.926 10.4167H7.29063C7.00313 10.4167 6.76978 10.65 6.76978 10.9375C6.76978 11.225 7.00313 11.4584 7.29063 11.4584H17.7448L16.7239 17.3261L13.0093 18.7188L8.78331 17.3094L8.32183 15.0022C8.26661 14.7209 7.99473 14.5365 7.70933 14.5938C7.42808 14.6501 7.24473 14.924 7.30098 15.2063L7.82183 17.8105C7.85831 17.9938 7.99058 18.1427 8.16768 18.2021L12.8552 19.7646C12.9083 19.7834 12.9646 19.7917 13.0198 19.7917C13.0823 19.7917 13.1438 19.7802 13.2031 19.7594L17.3698 18.1969C17.5427 18.1313 17.6688 17.9803 17.7 17.798L19.7834 5.81882C19.8094 5.6677 19.7677 5.51248 19.6688 5.39475Z" fill="white" stroke="#D0989B" stroke-width="0.9"/>
</g>
<defs>
<clipPath id="clip0">
<rect width="25" height="25" fill="white"/>
</clipPath>
</defs>
</svg>
