<svg width="164" height="57" viewBox="0 0 164 57" fill="none" xmlns="http://www.w3.org/2000/svg">
<g clip-path="url(#clip0)">
<path d="M27.8703 0.346313H0V56.5201H27.8703C41.8084 56.5201 55.7398 43.9445 55.7398 28.4373C55.7398 12.9302 41.8084 0.346313 27.8703 0.346313ZM27.8703 41.1955C25.3495 41.1943 22.8857 40.4446 20.7904 39.0414C18.6951 37.6381 17.0624 35.6441 16.0988 33.3117C15.1352 30.9792 14.8839 28.4131 15.3767 25.9376C15.8696 23.4622 17.0844 21.1887 18.8676 19.4046C20.6507 17.6205 22.9222 16.4059 25.3947 15.9144C27.8672 15.423 30.4298 15.6767 32.7583 16.6436C35.0868 17.6104 37.0767 19.2469 38.4764 21.3462C39.8761 23.4455 40.6227 25.9132 40.6218 28.4373C40.622 30.1137 40.2922 31.7737 39.6513 33.3223C39.0104 34.871 38.071 36.278 36.8867 37.4629C35.7025 38.6477 34.2966 39.5873 32.7495 40.2277C31.2024 40.8682 29.5444 41.1971 27.8703 41.1955Z" fill="#D0989B"/>
<path d="M83.0048 0.480702C89.6146 0.480702 93.0043 4.49231 93.0043 10.0136V14.9513C93.0043 20.4719 89.6146 24.4843 83.0048 24.4843H72.5261V0.480702H83.0048ZM87.1146 9.97908C87.1146 6.92737 85.5049 5.31551 81.9435 5.31551H78.3843V19.6487H81.9457C85.5071 19.6487 87.1168 18.0376 87.1168 14.9851L87.1146 9.97908ZM111.777 20.0257H103.113L101.778 24.4843H95.8876L104.449 0.480702H110.476L119.039 24.4858H113.149L111.777 20.0257ZM104.552 15.2938H110.338L107.462 5.79546L104.552 15.2938ZM138.235 0.480702V5.45296H131.762V24.4858H125.872V5.45296H119.4V0.480702H138.235ZM153.007 24.9665C145.747 24.9665 142.015 20.3029 142.015 14.0282V10.939C142.015 4.66356 145.747 0 153.007 0C160.266 0 164 4.66356 164 10.939V14.0252C164 20.2999 160.267 24.9635 153.007 24.9635V24.9665ZM153.007 4.90692C149.583 4.90692 147.906 7.20452 147.906 10.6333V14.3369C147.906 17.7657 149.584 20.0633 153.007 20.0633C156.429 20.0633 158.107 17.7657 158.107 14.3369V10.6303C158.11 7.20152 156.432 4.90391 153.007 4.90391V4.90692ZM82.6598 52.1306C85.8102 52.1306 87.3171 50.0734 87.4199 47.6729H92.8647C92.7957 52.7488 89.0633 57 82.7281 57C75.3314 57 71.77 52.3364 71.77 46.0956V42.941C71.77 36.6994 75.3314 32.0358 82.7281 32.0358C89.0633 32.0358 92.7957 36.2885 92.8647 41.3629H87.4229C87.3201 38.9632 85.8132 36.9059 82.6628 36.9059C79.1014 36.9059 77.6627 39.2719 77.6627 42.6668V46.3697C77.6627 49.7647 79.1014 52.1306 82.6598 52.1306ZM116.114 32.5165H121.524V56.5201H115.874V43.8318L112.107 51.1707H107.449L103.716 43.8318V56.5201H98.0666V32.5165H103.477L109.778 45.5818L116.114 32.5165ZM136.493 57.0023C130.74 57.0023 126.87 54.2585 126.87 49.4244V48.7725H132.52V49.2524C132.52 51.2759 133.821 52.5099 136.527 52.5099C138.958 52.5099 140.567 51.5155 140.567 49.664C140.613 49.1672 140.469 48.6714 140.164 48.2768C139.859 47.8822 139.416 47.6183 138.924 47.5384L132.931 46.0287C129.198 45.1034 127.281 43.457 127.281 39.5483C127.281 34.7818 130.671 32.0373 136.357 32.0373C141.734 32.0373 145.158 34.9523 145.158 39.3417V39.9246H139.713V39.513C139.713 37.9019 138.823 36.5649 136.357 36.5649C134.303 36.5649 133.001 37.2845 133.001 38.9992C132.964 39.4595 133.102 39.9168 133.388 40.2792C133.674 40.6415 134.086 40.882 134.542 40.9521L140.912 42.6668C144.747 43.6958 146.288 45.8214 146.288 49.148C146.285 53.9483 142.039 57 136.492 57L136.493 57.0023Z" fill="#D0989B"/>
</g>
<defs>
<clipPath id="clip0">
<rect width="164" height="57" fill="white"/>
</clipPath>
</defs>
</svg>
