<svg width="59" height="59" viewBox="0 0 59 59" fill="none" xmlns="http://www.w3.org/2000/svg">
<path d="M50.0762 57.7463H8.92366C4.70516 57.7463 1.25366 54.2948 1.25366 50.0763V8.92378C1.25366 4.70528 4.70516 1.25378 8.92366 1.25378H50.0762C54.2947 1.25378 57.7462 4.70528 57.7462 8.92378V50.0763C57.7462 54.2948 54.2947 57.7463 50.0762 57.7463Z" fill="#D0989B"/>
<path d="M23.6 47.2001C26.8597 47.2001 29.5 44.5598 29.5 41.3V35.4H23.6C20.3402 35.4 17.7 38.0403 17.7 41.3C17.7 44.5598 20.3402 47.2001 23.6 47.2001Z" fill="#A8DFCA"/>
<path d="M17.7 29.5001C17.7 26.2403 20.3402 23.6001 23.6 23.6001H29.5V35.4001H23.6C20.3402 35.4001 17.7 32.7598 17.7 29.5001Z" fill="#D3B0FF"/>
<path d="M17.7 17.7C17.7 14.4403 20.3402 11.8 23.6 11.8H29.5V23.6H23.6C20.3402 23.6 17.7 20.9598 17.7 17.7Z" fill="#F0B19E"/>
<path d="M29.5 11.8H35.4C38.6597 11.8 41.3 14.4403 41.3 17.7C41.3 20.9598 38.6597 23.6 35.4 23.6H29.5V11.8Z" fill="#FFCDC7"/>
<path d="M41.3 29.5001C41.3 32.7598 38.6597 35.4001 35.4 35.4001C32.1402 35.4001 29.5 32.7598 29.5 29.5001C29.5 26.2403 32.1402 23.6001 35.4 23.6001C38.6597 23.6001 41.3 26.2403 41.3 29.5001Z" fill="#C3EBFB"/>
</svg>
