<svg width="60" height="60" viewBox="0 0 60 60" fill="none" xmlns="http://www.w3.org/2000/svg">
<path d="M30 60C46.5685 60 60 46.5685 60 30C60 13.4315 46.5685 0 30 0C13.4315 0 0 13.4315 0 30C0 46.5685 13.4315 60 30 60Z" fill="#D0989B"/>
<path d="M13.2856 46.7142C8.78561 42.2142 6.42847 36.2142 6.42847 30.4285L29.7856 53.5713C23.7856 53.357 17.7856 51.2142 13.2856 46.7142ZM35.1428 52.9285L7.07132 24.857C9.42847 14.357 18.857 6.42847 29.9999 6.42847C37.9285 6.42847 44.7856 10.2856 49.0713 16.0713L45.857 18.857C42.2142 13.9285 36.4285 10.7142 29.9999 10.7142C21.6428 10.7142 14.5713 16.0713 11.7856 23.5713L36.4285 48.2142C42.6427 46.0713 47.357 40.7142 48.857 34.2856H38.5713V29.9999H53.5713C53.5713 41.1427 45.6427 50.5713 35.1428 52.9285Z" fill="white"/>
</svg>
