<svg width="78" height="82" viewBox="0 0 78 82" fill="none" xmlns="http://www.w3.org/2000/svg">
<g clip-path="url(#clip0)">
<path d="M76.529 37.3467L42.4734 1.54663C40.5134 -0.515219 37.3324 -0.515219 35.3699 1.54663L28.2982 8.98108L37.2691 18.412C39.3537 17.6715 41.7443 18.1683 43.4061 19.9153C45.0758 21.6735 45.545 24.2081 44.8235 26.4067L53.469 35.4959C55.5607 34.7384 57.9741 35.2285 59.6447 36.9876C61.9795 39.4412 61.9795 43.4179 59.6447 45.8731C57.3093 48.3286 53.5266 48.3286 51.1899 45.8731C49.4337 44.0249 48.9998 41.3134 49.8889 39.0389L41.8263 30.5628L41.8254 52.8684C42.4098 53.1722 42.9437 53.5735 43.4061 54.0567C45.7409 56.5103 45.7409 60.4873 43.4061 62.9445C41.0707 65.3987 37.2861 65.3987 34.9541 62.9445C32.6192 60.4873 32.6192 56.5107 34.9541 54.0571C35.5136 53.4685 36.1785 53.0025 36.9104 52.6858V30.1723C36.1775 29.8577 35.5121 29.3914 34.9541 28.8011C33.185 26.9439 32.7597 24.2151 33.6661 21.9316L24.8229 12.6339L1.47164 37.1811C-0.490547 39.2449 -0.490547 42.5892 1.47164 44.6514L35.5278 80.4521C37.4884 82.5143 40.6688 82.5143 42.6319 80.4521L76.5287 44.8176C78.4902 42.7548 78.4902 39.4085 76.5287 37.3467" fill="#D0989B"/>
</g>
<defs>
<clipPath id="clip0">
<rect width="78" height="82" fill="white"/>
</clipPath>
</defs>
</svg>
