<svg width="25" height="25" viewBox="0 0 25 25" fill="none" xmlns="http://www.w3.org/2000/svg">
<path d="M6.13751 17.7889V18.0541L6.27811 18.2905C6.34605 18.4047 6.41972 18.5145 6.49938 18.6189L5.5689 19.2171C5.13744 18.3932 4.63642 17.9335 4.29761 17.6227C4.28583 17.6119 4.27425 17.6012 4.26287 17.5908C4.22054 17.5519 4.18618 17.5195 4.1584 17.4929C4.19068 17.4869 4.23266 17.4818 4.28594 17.4798C4.60059 17.4679 5.052 17.5748 5.47266 17.7761L6.34465 16.5362C6.42204 16.6101 6.50218 16.6812 6.58504 16.7496C6.82353 16.9464 7.07695 17.1139 7.34029 17.2568L6.95273 17.7792L6.80671 17.976L6.42953 18.4843C6.4374 18.4922 6.41557 18.4709 6.39403 18.4469C6.37518 18.426 6.32718 18.3718 6.2785 18.2902C6.26664 18.2704 6.25473 18.2489 6.2432 18.2258C6.17577 18.0911 6.15135 17.9666 6.14249 17.8784C6.13885 17.8421 6.13778 17.8072 6.13751 17.7889ZM6.13751 17.7889V17.7792C6.13751 17.7716 6.13733 17.7764 6.13751 17.7889ZM5.0109 21.4049L5.828 20.6197C5.9473 20.7788 6.09031 20.9391 6.26372 21.0881C6.57591 21.3564 6.94026 21.5512 7.36229 21.6672L6.9822 22.6771C6.25247 22.3031 5.59657 21.8756 5.0109 21.4049Z" stroke="#D0989B" stroke-width="2"/>
</svg>
