<svg width="67" height="67" viewBox="0 0 67 67" fill="none" xmlns="http://www.w3.org/2000/svg">
<path d="M9.11292 51.0629L6.65625 49.6425L34.0548 2.1886L36.5115 3.609L9.11292 51.0629Z" fill="#D0989B"/>
<path d="M6.09155 45.8505H60.8931V48.6913H6.09155V45.8505Z" fill="#D0989B"/>
<path d="M34.5867 63.2747L7.177 47.4493L8.5974 44.9927L36.0071 60.8181L34.5867 63.2747ZM58.3985 22.0251L30.9866 6.20191L32.407 3.74524L59.8167 19.5706L58.3985 22.0251Z" fill="#D0989B"/>
<path d="M8.60399 22.0163L7.18359 19.5596L34.6179 3.72974L36.0383 6.1864L8.60399 22.0163Z" fill="#D0989B"/>
<path d="M57.8935 51.0628L30.4905 3.60448L32.9472 2.18408L60.3502 49.6424L57.8935 51.0628ZM8.2644 17.6745H11.1052V49.3253H8.2644V17.6745ZM55.8969 17.6745H58.7377V49.3253H55.8969V17.6745Z" fill="#D0989B"/>
<path d="M34.1042 62.0711L32.8647 59.9226L56.7056 46.1586L57.9451 48.307L34.1042 62.0711Z" fill="#D0989B"/>
<path d="M62.5007 50.2499C61.7071 51.6204 60.4026 52.6206 58.873 53.0312C57.3434 53.4419 55.7134 53.2295 54.3401 52.4408C52.9695 51.6471 51.9694 50.3427 51.5587 48.8131C51.1481 47.2835 51.3604 45.6535 52.1492 44.2802C52.9428 42.9096 54.2473 41.9095 55.7769 41.4988C57.3064 41.0882 58.9364 41.3005 60.3098 42.0893C63.1841 43.7486 64.16 47.3934 62.4984 50.2499H62.5007ZM14.8346 22.7218C14.041 24.0923 12.7365 25.0925 11.207 25.5031C9.67738 25.9138 8.04739 25.7015 6.67404 24.9127C5.30288 24.1191 4.30231 22.8142 3.89162 21.2841C3.48094 19.7539 3.69365 18.1234 4.48314 16.7499C5.27676 15.3793 6.58124 14.3792 8.11082 13.9685C9.6404 13.5579 11.2704 13.7702 12.6437 14.559C14.0143 15.3526 15.0144 16.6571 15.4251 18.1866C15.8357 19.7162 15.6234 21.3462 14.8346 22.7196V22.7218ZM4.50101 50.2499C3.71223 48.8765 3.49991 47.2465 3.91056 45.7169C4.32121 44.1874 5.32135 42.8829 6.69191 42.0893C8.06525 41.3005 9.69524 41.0882 11.2248 41.4988C12.7544 41.9095 14.0589 42.9096 14.8525 44.2802C15.6413 45.6535 15.8536 47.2835 15.443 48.8131C15.0323 50.3427 14.0322 51.6471 12.6616 52.4408C9.78731 54.0823 6.14027 53.1108 4.50101 50.2521V50.2499ZM52.167 22.724C51.3783 21.3507 51.1659 19.7207 51.5766 18.1911C51.9873 16.6615 52.9874 15.3571 54.3579 14.5634C55.7313 13.7746 57.3613 13.5623 58.8909 13.973C60.4204 14.3836 61.7249 15.3838 62.5185 16.7543C63.3073 18.1277 63.5196 19.7577 63.109 21.2872C62.6983 22.8168 61.6982 24.1213 60.3276 24.9149C58.9543 25.7037 57.3243 25.916 55.7947 25.5054C54.2651 25.0947 52.9607 24.0946 52.167 22.724ZM33.5008 66.9999C32.3196 66.9999 31.1649 66.6496 30.1828 65.9933C29.2007 65.337 28.4352 64.4041 27.9833 63.3128C27.5313 62.2214 27.4132 61.0205 27.6438 59.862C27.8744 58.7035 28.4434 57.6394 29.2788 56.8043C30.1143 55.9692 31.1786 55.4006 32.3371 55.1705C33.4957 54.9403 34.6966 55.0589 35.7878 55.5112C36.8789 55.9636 37.8115 56.7294 38.4674 57.7117C39.1233 58.6941 39.4732 59.8489 39.4728 61.0302C39.4687 62.6125 38.8381 64.1289 37.7189 65.2476C36.5998 66.3663 35.0832 66.9963 33.5008 66.9999ZM33.5008 11.9437C32.7163 11.9449 31.9392 11.7912 31.2141 11.4915C30.489 11.1918 29.8302 10.752 29.2754 10.1972C28.7206 9.64243 28.2808 8.98362 27.9811 8.25854C27.6814 7.53347 27.5277 6.75637 27.5289 5.97179C27.5289 4.38823 28.158 2.86953 29.2777 1.74979C30.3975 0.630043 31.9162 0.000976563 33.4997 0.000976562C35.0833 0.000976563 36.602 0.630043 37.7217 1.74979C38.8415 2.86953 39.4705 4.38823 39.4705 5.97179C39.4714 6.75599 39.3176 7.53267 39.0179 8.25734C38.7182 8.98202 38.2785 9.64046 37.724 10.195C37.1695 10.7495 36.5111 11.1892 35.7864 11.4889C35.0617 11.7886 34.285 11.9424 33.5008 11.9415" fill="#D0989B"/>
</svg>
