<svg width="89" height="89" viewBox="0 0 89 89" fill="none" xmlns="http://www.w3.org/2000/svg">
<g clip-path="url(#clip0)">
<path d="M84.8128 0.611875C84.4605 0.2225 83.9599 0 83.437 0H5.56198C5.03545 0 4.53848 0.2225 4.18613 0.611875C3.83378 0.9976 3.66325 1.51665 3.71523 2.03953L11.132 76.2062C11.2024 76.9294 11.6957 77.5487 12.3891 77.7785L45.7641 88.9035C45.9532 88.9703 46.1535 89 46.35 89C46.5725 89 46.7914 88.9591 47.0064 88.8813L76.6731 77.7563C77.3332 77.5115 77.7968 76.9071 77.8672 76.2062L85.2839 2.03953C85.3357 1.52047 85.165 0.9976 84.8128 0.611875ZM74.2848 74.6896L46.3129 85.1805L14.6993 74.6413L7.60533 3.70828H81.3827L74.2848 74.6896Z" fill="#D0989B" stroke="#D0989B" stroke-width="0.5"/>
<path d="M68.6006 18.5418H24.1006C23.574 18.5418 23.0771 18.7643 22.7247 19.1537C22.3724 19.5394 22.2018 20.0585 22.2538 20.5813L24.108 39.1231C24.2045 40.0687 25.0017 40.7918 25.9548 40.7918H62.7304L59.5153 61.6882L46.3135 66.6388L31.2689 61.6215L29.626 53.4076C29.4258 52.4063 28.4543 51.7499 27.4455 51.9538C26.4443 52.1541 25.7916 53.1294 25.9918 54.1343L27.846 63.4051C27.9759 64.0578 28.4468 64.588 29.0773 64.7994L45.7648 70.3619C45.9539 70.4286 46.1541 70.4584 46.3507 70.4584C46.5732 70.4584 46.7921 70.4175 47.0035 70.3396L61.8367 64.7771C62.4634 64.5435 62.9159 63.9873 63.016 63.3234L66.7243 39.2192C66.8058 38.6815 66.65 38.1401 66.2979 37.7284C65.9493 37.3168 65.4338 37.0832 64.8925 37.0832H27.6347L26.1514 22.2501H68.6007C69.6242 22.2501 70.455 21.4194 70.455 20.3959C70.455 19.3724 69.6241 18.5418 68.6006 18.5418Z" fill="#D0989B" stroke="#D0989B" stroke-width="0.5"/>
</g>
<defs>
<clipPath id="clip0">
<rect width="89" height="89" fill="white"/>
</clipPath>
</defs>
</svg>
