<svg width="89" height="89" viewBox="0 0 89 89" fill="none" xmlns="http://www.w3.org/2000/svg">
<g clip-path="url(#clip0)">
<path d="M84.8128 0.611875C84.4605 0.2225 83.9599 0 83.437 0H5.56198C5.03545 0 4.53848 0.2225 4.18613 0.611875C3.83378 0.9976 3.66325 1.51665 3.71523 2.03953L11.132 76.2062C11.2024 76.9294 11.6957 77.5487 12.3891 77.7785L45.7641 88.9035C45.9532 88.9703 46.1535 89 46.3501 89C46.5726 89 46.7914 88.9591 47.0064 88.8813L76.6732 77.7563C77.3332 77.5115 77.7968 76.9071 77.8672 76.2062L85.2839 2.03953C85.3357 1.52047 85.165 0.9976 84.8128 0.611875ZM74.2848 74.6896L46.3129 85.1805L14.6993 74.6413L7.60533 3.70828H81.3827L74.2848 74.6896Z" fill="#D0989B" stroke="#D0989B" stroke-width="0.5"/>
<path d="M70.0616 19.2538C69.7092 18.8052 69.1716 18.5418 68.6005 18.5418H50.0588C49.0353 18.5418 48.2046 19.3725 48.2046 20.396V42.646C48.2046 43.6695 49.0353 44.5003 50.0588 44.5003H62.6709L59.5559 61.6291L49.473 64.9925C48.5015 65.3151 47.9786 66.3645 48.3012 67.3362C48.5608 68.115 49.2839 68.6045 50.059 68.6045C50.2518 68.6045 50.4484 68.5748 50.6486 68.5118L61.7736 64.8036C62.4152 64.5885 62.8898 64.0434 63.0085 63.3759L66.7168 42.9801C66.8169 42.4387 66.6686 41.8824 66.3163 41.4597C65.9639 41.0369 65.441 40.7922 64.8923 40.7922H51.913V22.2501H66.2235L64.9477 27.3639C64.6993 28.3577 65.3037 29.3628 66.2975 29.6112C67.2802 29.8559 68.2964 29.2552 68.5448 28.2614L70.399 20.8447C70.5361 20.2884 70.4138 19.7025 70.0616 19.2538Z" fill="#D0989B" stroke="#D0989B" stroke-width="0.5"/>
<path d="M42.6379 18.5418H20.3879C19.3644 18.5418 18.5337 19.3725 18.5337 20.396C18.5337 21.4195 19.3644 22.2501 20.3879 22.2501H40.7837V64.2915L31.257 61.5695L29.6253 53.4074C29.4251 52.4062 28.4647 51.7498 27.4448 51.9537C26.4436 52.1539 25.7908 53.1293 25.9911 54.1342L27.8453 63.405C27.9825 64.0872 28.4869 64.6324 29.1544 64.8253L42.1336 68.5336C42.3005 68.5817 42.471 68.604 42.6417 68.604C43.0386 68.604 43.4316 68.4741 43.7542 68.2294C44.2178 67.8809 44.4921 67.3319 44.4921 66.7498V20.3959C44.492 19.3724 43.6614 18.5418 42.6379 18.5418Z" fill="#D0989B" stroke="#D0989B" stroke-width="0.5"/>
</g>
<defs>
<clipPath id="clip0">
<rect width="89" height="89" fill="white"/>
</clipPath>
</defs>
</svg>
