<svg width="65" height="25" viewBox="0 0 65 25" fill="none" xmlns="http://www.w3.org/2000/svg">
<path d="M59.8006 8.8985C59.6426 8.8985 59.489 8.94281 59.3531 9.04729L55.051 12.4214C54.7726 12.6394 54.6033 13.0507 54.6033 13.4885V20.2245C54.6033 20.6619 54.7726 21.0728 55.051 21.2912L56.1745 22.1721C56.7204 22.5374 56.9216 22.5318 57.17 22.5318C57.9782 22.5318 58.4397 21.8657 58.4397 20.7083V14.059C58.4397 13.965 58.3797 13.8978 58.3118 13.8978H57.7729C57.7039 13.8978 57.6451 13.965 57.6451 14.059V20.7083C57.6451 21.2212 57.2515 21.7373 56.613 21.3036L55.4437 20.3733C55.4024 20.3428 55.3706 20.2888 55.3706 20.2245V13.4883C55.3706 13.4245 55.402 13.3595 55.4437 13.3271L59.7367 9.96557C59.7561 9.95017 59.7782 9.94206 59.8006 9.94206C59.8231 9.94206 59.8452 9.95017 59.8646 9.96557L64.1576 13.3273C64.1985 13.3607 64.2308 13.4226 64.2308 13.4887V20.2247C64.2308 20.289 64.2069 20.3549 64.1668 20.3859L59.8646 23.7476C59.8277 23.7774 59.777 23.7774 59.7367 23.7476L58.6315 22.8545C58.6147 22.8421 58.5958 22.8356 58.5767 22.8356C58.5576 22.8356 58.5387 22.8421 58.5219 22.8545C58.2169 23.0893 58.1595 23.1166 57.8733 23.2514C57.8029 23.2849 57.6959 23.3367 57.9099 23.4997L59.3531 24.6531C59.4891 24.7597 59.6436 24.8154 59.8007 24.8145C59.9578 24.8158 60.1123 24.7602 60.2482 24.6533L64.5504 21.2914C64.8288 21.0716 64.9979 20.6621 64.9979 20.2247V13.4885C64.9979 13.0509 64.8288 12.6402 64.5504 12.4218L60.2482 9.04764C60.1134 8.94298 59.9587 8.89867 59.8007 8.89867L59.8006 8.8985Z" fill="#D0989B"/>
<path d="M60.9513 13.7118C59.7264 13.7118 58.9968 14.4199 58.9968 15.5975C58.9968 16.8747 59.7209 17.2258 60.8966 17.3837C62.3031 17.5708 62.4127 17.8513 62.4127 18.2273C62.4127 18.8796 62.0298 19.1577 61.125 19.1577C59.988 19.1577 59.7382 18.7722 59.6545 18.0041C59.6446 17.9216 59.5978 17.8551 59.5357 17.8551H58.9785C58.91 17.8551 58.8507 17.9354 58.8507 18.0289C58.8507 19.0122 59.2445 20.1749 61.125 20.1749C62.4862 20.1749 63.2713 19.4492 63.2713 18.1777C63.2713 16.9173 62.6371 16.5789 61.3167 16.3418C59.9825 16.102 59.8553 15.9846 59.8553 15.5602C59.8553 15.2099 59.9632 14.7413 60.9513 14.7413C61.8341 14.7413 62.1603 14.9999 62.294 15.8084C62.3057 15.8842 62.3549 15.9447 62.4127 15.9447H62.97C63.0042 15.9447 63.0375 15.9161 63.0612 15.8827C63.0846 15.847 63.1011 15.8068 63.0978 15.7587C63.0115 14.3666 62.328 13.7118 60.9513 13.7118V13.7118Z" fill="#D0989B"/>
<path d="M34.5081 0.0660591C34.46 0.0661024 34.4127 0.0831565 34.3709 0.115542C34.3294 0.14852 34.295 0.195611 34.271 0.252177C34.247 0.308742 34.2342 0.372831 34.234 0.438128V9.92813C34.234 10.0212 34.2021 10.1047 34.1427 10.1514C34.1136 10.1744 34.0805 10.1866 34.0468 10.1866C34.0131 10.1866 33.98 10.1744 33.9509 10.1514L32.8091 9.2583C32.7258 9.19286 32.6313 9.1584 32.535 9.1584C32.4388 9.1584 32.3443 9.19286 32.261 9.2583L27.7031 12.8309C27.5327 12.9645 27.4291 13.2212 27.4291 13.4885V20.6338C27.4291 20.9007 27.5328 21.1452 27.7031 21.2788L32.261 24.8516C32.3443 24.9172 32.4388 24.9518 32.535 24.9518C32.6313 24.9518 32.7258 24.9172 32.8091 24.8516L37.367 21.2788C37.4505 21.2136 37.5197 21.1196 37.5679 21.0063C37.616 20.8931 37.6413 20.7646 37.6411 20.6338V2.82003C37.641 2.6862 37.6147 2.55481 37.565 2.43928C37.5152 2.32376 37.4438 2.22822 37.358 2.16244L34.645 0.103128C34.6025 0.0708867 34.5553 0.065197 34.5081 0.0660591V0.0660591ZM5.18728 8.98537C5.10045 8.99003 5.01869 9.01072 4.94074 9.07209L0.382668 12.6449C0.299173 12.71 0.229852 12.804 0.181737 12.9173C0.133622 13.0305 0.108427 13.1591 0.108706 13.2899L0.117846 22.8793C0.117846 23.0126 0.1685 23.1366 0.254827 23.2018C0.296215 23.2355 0.343588 23.2534 0.391872 23.2534C0.440155 23.2534 0.487529 23.2355 0.528916 23.2018L3.23261 21.093C3.40387 20.9547 3.51571 20.7143 3.51571 20.4478V15.9695C3.51571 15.7023 3.61918 15.4571 3.7898 15.3243L4.94062 14.4188C5.02382 14.3531 5.11846 14.3188 5.2147 14.3195C5.30865 14.3195 5.40513 14.3514 5.48867 14.4188L6.63961 15.3243C6.72318 15.3894 6.79257 15.4834 6.84071 15.5967C6.88886 15.7101 6.91404 15.8387 6.9137 15.9695V20.4476C6.9137 20.7142 7.02669 20.9562 7.1968 21.0928L9.90049 23.2018C9.94188 23.2355 9.98925 23.2534 10.0375 23.2534C10.0858 23.2534 10.1332 23.2355 10.1746 23.2018C10.2162 23.169 10.2508 23.122 10.2749 23.0654C10.299 23.0087 10.3116 22.9445 10.3117 22.8792L10.3206 13.2899C10.3211 13.159 10.296 13.0303 10.2479 12.917C10.1998 12.8036 10.1303 12.7097 10.0466 12.6449L5.48867 9.07209C5.41161 9.01072 5.3296 8.9902 5.24213 8.98537H5.18728ZM46.145 9.07209C46.0497 9.07209 45.9564 9.10485 45.871 9.17141L41.3131 12.7442C41.2296 12.8094 41.1603 12.9034 41.1122 13.0166C41.064 13.1299 41.0388 13.2584 41.039 13.3892V20.5345C41.039 20.8033 41.1504 21.0468 41.3221 21.1797L45.8436 24.678C46.0105 24.8073 46.2144 24.8171 46.3825 24.69L49.1227 22.6185C49.2097 22.553 49.2685 22.4305 49.2689 22.2961C49.2693 22.2306 49.2569 22.1661 49.2328 22.1094C49.2087 22.0527 49.1738 22.0057 49.1319 21.9735L44.5465 18.4007C44.4607 18.3342 44.4004 18.1995 44.4004 18.0657V15.833C44.4004 15.6993 44.4613 15.5769 44.5465 15.5104L45.9714 14.3938C46.0131 14.3611 46.0603 14.3438 46.1085 14.3438C46.1566 14.3438 46.2039 14.3611 46.2455 14.3938L47.6703 15.5104C47.712 15.5429 47.7467 15.5899 47.7708 15.6465C47.7948 15.7031 47.8075 15.7674 47.8074 15.8328V17.5943C47.8073 17.6597 47.8199 17.724 47.8439 17.7806C47.868 17.8372 47.9026 17.8842 47.9444 17.9168C48.0298 17.9838 48.1331 17.984 48.2183 17.9168L50.9496 15.7586C51.0329 15.6932 51.1021 15.5991 51.1502 15.4859C51.1983 15.3726 51.2236 15.2442 51.2237 15.1135V13.3893C51.2237 13.123 51.1196 12.878 50.9496 12.7442L46.419 9.17141C46.3358 9.10598 46.2412 9.07176 46.145 9.07227V9.07209ZM32.5167 14.4064C32.5406 14.4064 32.5685 14.4143 32.5898 14.4311L34.1518 15.6592C34.1942 15.6924 34.225 15.754 34.225 15.8204V18.2766C34.225 18.3433 34.1945 18.4047 34.1518 18.438L32.5898 19.6661C32.569 19.6822 32.5453 19.6907 32.5213 19.6907C32.4973 19.6907 32.4737 19.6822 32.4528 19.6661L30.8909 18.438C30.8484 18.4045 30.8178 18.3433 30.8178 18.2766V15.8204C30.8178 15.7538 30.8485 15.6928 30.8909 15.6592L32.4528 14.4312C32.472 14.415 32.4942 14.4065 32.5168 14.4066V14.4064H32.5167Z" fill="#404137"/>
<path d="M18.8795 9.03479C18.7845 9.03479 18.6906 9.06755 18.6055 9.1341L14.0476 12.6944C13.8771 12.8277 13.7735 13.085 13.7735 13.3519V20.4972C13.7735 20.7644 13.8772 21.0086 14.0476 21.1424L18.6055 24.715C18.6888 24.7806 18.7833 24.8152 18.8796 24.8152C18.9758 24.8152 19.0704 24.7806 19.1536 24.715L23.7115 21.1424C23.795 21.0771 23.8643 20.9831 23.9124 20.8698C23.9605 20.7565 23.9857 20.628 23.9855 20.4972V13.3519C23.9855 13.0846 23.8819 12.8277 23.7115 12.6944L19.1536 9.1341C19.0703 9.06875 18.9757 9.03449 18.8795 9.03479V9.03479ZM46.1359 15.4112C46.1177 15.4112 46.0976 15.4112 46.0812 15.4236L45.2043 16.1182C45.188 16.1306 45.1743 16.1485 45.1647 16.1703C45.155 16.1921 45.1498 16.217 45.1495 16.2424V17.6069C45.1495 17.6582 45.1713 17.7053 45.2043 17.731L46.0812 18.4132C46.1141 18.4391 46.1491 18.4391 46.1816 18.4132L47.0585 17.7308C47.0747 17.7184 47.0884 17.7005 47.098 17.6787C47.1076 17.657 47.1129 17.6322 47.1133 17.6069V16.2422C47.1129 16.2169 47.1076 16.1921 47.098 16.1703C47.0884 16.1486 47.0747 16.1306 47.0585 16.1182L46.1816 15.4234C46.1654 15.4105 46.1542 15.4113 46.1359 15.4113V15.4112Z" fill="#D0989B"/>
</svg>
