<svg width="72" height="71" viewBox="0 0 72 71" fill="none" xmlns="http://www.w3.org/2000/svg">
<path d="M71.9857 42.0007C71.9857 37.7424 66.5713 33.7068 58.27 31.2041C60.1857 22.8709 59.3343 16.2409 55.5828 14.1183C54.7181 13.6204 53.707 13.3846 52.6029 13.3846V16.3065C53.2148 16.3065 53.707 16.4244 54.1194 16.6471C55.9287 17.6691 56.7136 21.5606 56.1016 26.5658C55.9553 27.7975 55.7158 29.0946 55.4231 30.418C52.8157 29.7891 49.9688 29.3043 46.9756 28.9898C45.1796 26.5658 43.3172 24.3646 41.4414 22.4385C45.7783 18.4684 49.8491 16.2933 52.6162 16.2933V13.3715C48.9578 13.3715 44.1686 15.9396 39.3262 20.3945C34.4838 15.9658 29.6947 13.4239 26.0363 13.4239V16.3458C28.7901 16.3458 32.8741 18.5077 37.211 22.4516C35.3486 24.3777 33.4861 26.5658 31.7168 28.9898C28.7102 29.3043 25.8633 29.7891 23.2559 30.4311C22.9499 29.1208 22.7238 27.8499 22.5641 26.6313C21.9389 21.6261 22.7105 17.7346 24.5064 16.6995C24.9055 16.4637 25.4243 16.3589 26.0363 16.3589V13.437C24.9188 13.437 23.9078 13.6728 23.0297 14.1707C19.2915 16.2933 18.4534 22.9102 20.3824 31.2173C12.1078 33.733 6.71997 37.7555 6.71997 42.0007C6.71997 46.2591 12.1344 50.2947 20.4356 52.7973C18.5199 61.1306 19.3714 67.7605 23.1229 69.8831C23.9876 70.381 24.9986 70.6169 26.1161 70.6169C29.7745 70.6169 34.5637 68.0488 39.406 63.5939C44.2484 68.0226 49.0376 70.5645 52.696 70.5645C53.8134 70.5645 54.8245 70.3286 55.7025 69.8307C59.4407 67.7081 60.2788 61.0913 58.3499 52.7842C66.5979 50.2816 71.9857 46.246 71.9857 42.0007ZM54.6649 33.2613C54.1726 34.9515 53.5607 36.6942 52.8689 38.4368C52.3235 37.3886 51.7514 36.3404 51.1262 35.2922C50.5142 34.244 49.8624 33.222 49.2105 32.2262C51.0996 32.5013 52.9221 32.842 54.6649 33.2613ZM48.572 47.2156C47.5343 48.9844 46.4701 50.6616 45.3659 52.2208C43.3837 52.3911 41.3749 52.4828 39.3528 52.4828C37.344 52.4828 35.3352 52.3911 33.3664 52.2339C32.2622 50.6747 31.1846 49.0106 30.147 47.2549C29.1359 45.5384 28.218 43.7958 27.3799 42.04C28.2047 40.2843 29.1359 38.5285 30.1337 36.8121C31.1713 35.0432 32.2356 33.3661 33.3398 31.8069C35.3219 31.6365 37.3307 31.5448 39.3528 31.5448C41.3616 31.5448 43.3704 31.6365 45.3393 31.7938C46.4435 33.353 47.521 35.017 48.5587 36.7728C49.5697 38.4892 50.4876 40.2319 51.3257 41.9876C50.4876 43.7434 49.5697 45.4991 48.572 47.2156ZM52.8689 45.5122C53.5873 47.268 54.1992 49.0237 54.7048 50.7271C52.962 51.1464 51.1262 51.5001 49.2238 51.7753C49.8757 50.7664 50.5276 49.7313 51.1395 48.67C51.7515 47.6218 52.3235 46.5604 52.8689 45.5122ZM39.3794 59.4927C38.1422 58.2349 36.905 56.8329 35.6811 55.2999C36.8784 55.3523 38.1023 55.3916 39.3395 55.3916C40.59 55.3916 41.8272 55.3654 43.0378 55.2999C41.8405 56.8329 40.6033 58.2349 39.3794 59.4927ZM29.4818 51.7753C27.5928 51.5001 25.7702 51.1595 24.0275 50.7402C24.5197 49.0499 25.1317 47.3073 25.8234 45.5646C26.3689 46.6129 26.9409 47.6611 27.5662 48.7093C28.1914 49.7575 28.83 50.7795 29.4818 51.7753ZM39.3129 24.5087C40.5501 25.7666 41.7873 27.1685 43.0112 28.7015C41.8139 28.6491 40.59 28.6098 39.3528 28.6098C38.1023 28.6098 36.8651 28.636 35.6545 28.7015C36.8518 27.1685 38.089 25.7666 39.3129 24.5087ZM29.4685 32.2262C28.8167 33.2351 28.1648 34.2702 27.5528 35.3315C26.9409 36.3797 26.3689 37.4279 25.8234 38.4761C25.1051 36.7204 24.4931 34.9646 23.9876 33.2613C25.7303 32.8551 27.5662 32.5013 29.4685 32.2262ZM17.4291 48.6307C12.7197 46.6522 9.67329 44.0578 9.67329 42.0007C9.67329 39.9436 12.7197 37.3362 17.4291 35.3708C18.5732 34.886 19.8237 34.4536 21.1141 34.0474C21.8724 36.6155 22.8701 39.2885 24.1073 42.0269C22.8834 44.7523 21.899 47.4121 21.154 49.9671C19.837 49.5609 18.5865 49.1155 17.4291 48.6307ZM24.5862 67.3543C22.777 66.3323 21.9921 62.4408 22.604 57.4356C22.7504 56.204 22.9898 54.9068 23.2825 53.5835C25.8899 54.2124 28.7368 54.6972 31.7301 55.0116C33.526 57.4356 35.3885 59.6369 37.2642 61.563C32.9274 65.5331 28.8566 67.7081 26.0895 67.7081C25.4908 67.695 24.9853 67.5771 24.5862 67.3543ZM56.1415 57.3701C56.7668 62.3753 55.9952 66.2668 54.1992 67.3019C53.8001 67.5378 53.2813 67.6426 52.6694 67.6426C49.9156 67.6426 45.8315 65.4806 41.4947 61.5368C43.3571 59.6107 45.2196 57.4225 46.9889 54.9985C49.9954 54.6841 52.8423 54.1993 55.4498 53.5573C55.7557 54.8806 55.9952 56.1516 56.1415 57.3701ZM61.2633 48.6307C60.1192 49.1155 58.8687 49.5478 57.5783 49.954C56.82 47.3859 55.8222 44.713 54.585 41.9745C55.8089 39.2492 56.7934 36.5893 57.5384 34.0343C58.8554 34.4405 60.1059 34.886 61.2766 35.3708C65.9859 37.3493 69.0324 39.9436 69.0324 42.0007C69.0191 44.0578 65.9726 46.6653 61.2633 48.6307Z" fill="#D0989B"/>
</svg>
