<svg width="76" height="76" viewBox="0 0 76 76" fill="none" xmlns="http://www.w3.org/2000/svg">
<g clip-path="url(#clip0)">
<path d="M52.66 52.8676C55.4647 52.5632 57.5923 50.0263 57.4956 46.9821C57.3989 43.9379 54.9811 41.5026 52.0797 41.5026H51.8863C48.8882 41.604 46.567 44.2423 46.6638 47.388C46.7605 48.9101 47.3407 50.2293 48.2112 51.1425C44.9229 57.9412 39.8938 62.9134 32.3502 67.0738C27.2244 69.9151 21.9052 70.9298 16.5859 70.2195C12.2339 69.6107 8.84889 67.5812 6.7212 64.2326C3.62638 59.2604 3.33624 53.8823 5.9475 48.5042C7.78505 44.6482 10.6864 41.807 12.524 40.3864C12.1371 39.0672 11.5569 36.8348 11.2667 35.2112C-2.75669 45.8659 -1.30599 60.2751 2.94939 67.0738C6.14092 72.1475 12.6207 75.2932 19.7775 75.2932C21.7117 75.2932 23.646 75.0902 25.5803 74.5829C37.9596 72.046 47.3407 64.3341 52.66 52.8676ZM69.6815 40.2849C62.3313 31.2538 51.4994 26.2816 39.1201 26.2816H37.5727C36.7023 24.4551 34.8647 23.2374 32.8338 23.2374H32.6403C29.6422 23.3389 27.3211 25.9772 27.4178 29.1228C27.5145 32.167 29.9324 34.6024 32.8338 34.6024H33.0272C35.1549 34.5009 36.9924 33.0803 37.7661 31.1523H39.507C46.8572 31.1523 53.8205 33.3847 60.1069 37.7481C64.9425 41.0967 68.4242 45.46 70.3585 50.7366C72.0026 54.9985 71.9059 59.1589 70.1651 62.7105C67.4571 68.0886 62.9116 71.0313 56.9153 71.0313C53.0468 71.0313 49.3717 69.8136 47.4375 68.9004C46.3736 69.9151 44.4394 71.5387 43.0854 72.5534C47.244 74.5829 51.4994 75.6991 55.5614 75.6991C64.8458 75.6991 71.7125 70.321 74.3237 64.9429C77.1284 59.0574 76.935 48.9101 69.6815 40.2849ZM20.5512 54.5926C20.6479 57.6368 23.0657 60.0722 25.9671 60.0722H26.1606C29.1587 59.9707 31.4798 57.3324 31.3831 54.1867C31.2864 51.1425 28.8685 48.7072 25.9671 48.7072H25.7737C25.5803 48.7072 25.2901 48.7072 25.0967 48.8086C21.1315 41.9085 19.4873 34.3994 20.0676 26.2816C20.4545 20.1932 22.3887 14.9166 25.7737 10.5532C28.5784 6.79871 33.9943 4.97219 37.6694 4.87072C47.921 4.66777 52.2731 18.0622 52.5633 23.4403C53.8205 23.7447 55.9482 24.4551 57.3989 24.9624C56.2384 8.52375 46.567 0 37.2826 0C28.5784 0 20.5512 6.59576 17.3597 16.3372C12.9108 29.3258 15.8122 41.807 21.2282 51.6499C20.7446 52.3602 20.4545 53.4764 20.5512 54.5926Z" fill="#D0989B"/>
</g>
<defs>
<clipPath id="clip0">
<rect width="76" height="76" fill="white"/>
</clipPath>
</defs>
</svg>
