<svg width="25" height="28" viewBox="0 0 25 28" fill="none" xmlns="http://www.w3.org/2000/svg">
<path d="M12.5 0L25 6.9992V21.0008L12.5 28L0 21.0008V6.9992L12.5 0Z" fill="white"/>
<path d="M22.7681 20.5181L12.9134 26.0368V21.7395L19.0536 18.395L22.7681 20.5181ZM23.4431 19.9137V8.37417L19.8385 10.4365V17.8546L23.4431 19.9137ZM2.19313 20.5181L12.0478 26.0368V21.7395L5.90437 18.395L2.19313 20.5181ZM1.51807 19.9137V8.37417L5.12272 10.4365V17.8546L1.51807 19.9137ZM1.94119 7.62596L12.0478 1.96649V6.11997L5.57168 9.64675L5.52 9.67552L1.94119 7.62596ZM23.02 7.62596L12.9134 1.96649V6.11997L19.3895 9.64355L19.4412 9.67233L23.02 7.62596Z" fill="#FABFC2"/>
<path d="M12.0478 20.7611L5.98836 17.4613V10.9289L12.0478 14.3918V20.7611ZM12.9134 20.7611L18.9728 17.4645V10.9289L12.9134 14.3918V20.7611ZM6.39856 10.1743L12.4806 6.86499L18.5626 10.1743L12.4806 13.65L6.39856 10.1743Z" fill="#D0989B"/>
</svg>
